<svg xmlns="http://www.w3.org/2000/svg" version="1.1" width="500" height="500" viewBox="0 0 500 500">
  <path d="M250,0C111.929,0,0,111.929,0,250s111.929,250,250,250s250-111.929,250-250l0,0C500.179,112.108,388.54,0.179,250.648,0   C250.432,0,250.216,0,250,0z M328.479,373.786c-50.971,35.599-101.133,39.644-144.822,12.945l54.207-63.916   c19.417,11.327,37.217,9.709,59.061-5.663c15.372-11.327,21.036-26.699,14.563-35.599c-9.709-13.754-27.508-3.236-62.298,12.136   c-29.935,12.136-55.825,25.081-86.57,24.272c-24.591,0.137-47.52-12.397-60.68-33.172c-13.967-20.646-18.112-46.403-11.327-70.388   c8.9-33.172,31.553-63.916,67.152-88.997c66.343-46.116,127.832-50.162,172.33-12.945l-63.916,63.916   c-19.417-16.181-42.88-14.563-70.388,5.663c-18.608,12.945-24.272,27.508-17.799,37.217c12.136,16.99,29.935,4.045,70.388-12.136   c68.77-27.508,110.032-28.317,137.54,10.518C416.667,262.136,398.058,325.243,328.479,373.786z"/>
</svg>